<svg xmlns="http://www.w3.org/2000/svg">


<symbol id="location-icon" xmlns="http://www.w3.org/2000/svg" width="22" height="22" viewBox="0 0 22 22" fill="none">
  <circle cx="11" cy="11" r="8" stroke="#AEB3B9" stroke-width="2"/>
  <rect x="10" width="2" height="4" />
  <rect x="10" y="18" width="2" height="4" fill="#AEB3B9"/>
  <rect x="4" y="10" width="2" height="4" transform="rotate(90 4 10)" fill="#AEB3B9"/>
  <rect x="22" y="10" width="2" height="4" transform="rotate(90 22 10)" fill="#AEB3B9"/>
</symbol>

<symbol id="star" xmlns="http://www.w3.org/2000/svg" width="22" height="20" viewBox="0 0 22 20" fill="none">
  <path d="M11 1.61804L12.9941 7.75532L13.1064 8.10081H13.4697H19.9228L14.7021 11.8939L14.4082 12.1074L14.5205 12.4529L16.5146 18.5902L11.2939 14.7971L11 14.5836L10.7061 14.7971L5.48542 18.5902L7.47954 12.4529L7.5918 12.1074L7.29791 11.8939L2.07722 8.10081H8.53035H8.89362L9.00587 7.75532L11 1.61804Z" stroke="#7E8691"/>
</symbol>


<symbol id="cloudy"xmlns="http://www.w3.org/2000/svg" width="35" height="35" viewBox="0 0 35 35" fill="none">
  <g clip-path="url(#clip0_101_2)">
    <path d="M29.4091 22.9252C25.7807 22.9252 17.3616 20.275 13.628 16.9702C12.251 15.7514 11.5527 14.4961 11.5527 13.2393C11.5527 10.45 13.822 8.1807 16.6113 8.1807C17.0894 8.1807 17.5612 8.24776 18.0141 8.37833C18.6991 6.38654 20.5868 4.97205 22.7979 4.97205C24.6251 4.97205 26.2966 5.96572 27.1872 7.51536C27.33 7.50326 27.4735 7.49717 27.6172 7.49717C30.4065 7.49717 32.6758 9.76643 32.6758 12.5558C32.6758 12.8838 32.6447 13.2076 32.5829 13.525C34.0587 14.4335 35 16.0673 35 17.8386C35 19.1677 34.4651 20.4084 33.4938 21.3321C32.608 22.1744 31.3907 22.7276 30.0659 22.8896C29.87 22.9135 29.65 22.9252 29.4091 22.9252Z" fill="#EEE1DC"/>
    <path d="M32.5829 13.525C32.6447 13.2075 32.6758 12.8838 32.6758 12.5557C32.6758 9.76637 30.4065 7.49711 27.6172 7.49711C27.4734 7.49711 27.33 7.50319 27.1872 7.51529C26.375 6.1021 24.9133 5.1517 23.2764 4.99522V21.7547C25.6866 22.4909 27.9403 22.9252 29.4091 22.9252C29.65 22.9252 29.87 22.9135 30.0659 22.8896C31.3907 22.7276 32.608 22.1745 33.4938 21.3321C34.4651 20.4084 35 19.1677 35 17.8386C35 16.0673 34.0587 14.4335 32.5829 13.525Z" fill="#E0D2CD"/>
    <path d="M14.5696 30.028C13.4014 30.028 12.2583 29.6246 11.3508 28.8921C10.8815 28.5133 10.4843 28.0546 10.176 27.543C9.51057 27.9491 8.73811 28.1734 7.94288 28.1734C6.0323 28.1734 4.38669 26.9024 3.84583 25.1437C2.96399 25.0524 2.12317 24.6892 1.44758 24.0924C0.527666 23.2798 0 22.1095 0 20.8817C0 18.6629 1.69511 16.8328 3.85813 16.6178C4.0803 15.9171 4.48144 15.2809 5.03152 14.7713C5.82572 14.0355 6.85966 13.6303 7.94288 13.6303C8.73065 13.6303 9.49676 13.8508 10.1583 14.2501C10.4657 13.7322 10.8639 13.2674 11.336 12.8834C12.2462 12.1431 13.3946 11.7354 14.5696 11.7354C15.7447 11.7354 16.8931 12.1431 17.8032 12.8834C18.2753 13.2674 18.6735 13.7322 18.9809 14.2501C19.6425 13.8509 20.4086 13.6303 21.1964 13.6303C22.2796 13.6303 23.3136 14.0356 24.1078 14.7713C24.658 15.2811 25.0592 15.9174 25.2813 16.6184C26.167 16.7077 27.0117 17.071 27.6903 17.6697C28.6112 18.4824 29.1393 19.6531 29.1393 20.8817C29.1393 22.1095 28.6117 23.2798 27.6917 24.0924C27.0162 24.6891 26.1753 25.0523 25.2934 25.1436C24.7526 26.9023 23.1069 28.1734 21.1964 28.1734C20.4012 28.1734 19.6286 27.9489 18.9633 27.543C18.655 28.0546 18.2578 28.5133 17.7885 28.892C16.8809 29.6246 15.7378 30.028 14.5696 30.028Z" fill="#FFF4F4"/>
    <path d="M27.6902 17.6697C27.0116 17.071 26.1669 16.7077 25.2812 16.6184C25.0591 15.9174 24.6579 15.2811 24.1076 14.7713C23.3134 14.0355 22.2795 13.6303 21.1963 13.6303C20.4086 13.6303 19.6424 13.8509 18.9808 14.2501C18.6735 13.7322 18.2753 13.2674 17.8031 12.8834C16.893 12.1431 15.7445 11.7354 14.5695 11.7354V30.028C15.7376 30.028 16.8808 29.6246 17.7883 28.8921C18.2576 28.5133 18.6548 28.0546 18.9631 27.543C19.6285 27.949 20.401 28.1734 21.1962 28.1734C23.1067 28.1734 24.7524 26.9024 25.2933 25.1437C26.175 25.0524 27.0159 24.6891 27.6915 24.0924C28.6115 23.2799 29.1392 22.1096 29.1392 20.8817C29.1392 19.6531 28.6111 18.4824 27.6902 17.6697Z" fill="#F6EFEA"/>
  </g>
  <defs>
    <clipPath id="clip0_101_2">
      <rect width="35" height="35" fill="white"/>
    </clipPath>
  </defs>
</symbol>
</svg>
